<svg width="6" height="8" viewBox="0 0 6 8" fill="none" xmlns="http://www.w3.org/2000/svg">
<path d="M5.22271 3.68784L1.66261 0.127804C1.58027 0.045398 1.47035 0 1.35315 0C1.23595 0 1.12603 0.045398 1.04369 0.127804L0.781512 0.389915C0.610911 0.560711 0.610911 0.838302 0.781512 1.00884L3.77102 3.99834L0.778195 6.99116C0.695854 7.07357 0.650391 7.18342 0.650391 7.30056C0.650391 7.41783 0.695854 7.52768 0.778195 7.61015L1.04037 7.8722C1.12278 7.9546 1.23263 8 1.34983 8C1.46703 8 1.57695 7.9546 1.65929 7.8722L5.22271 4.30891C5.30525 4.22624 5.35058 4.11587 5.35032 3.99854C5.35058 3.88075 5.30525 3.77044 5.22271 3.68784Z" fill="#C4C4C4"/>
</svg>
