<svg width="14" height="14" viewBox="0 0 14 14" fill="none" xmlns="http://www.w3.org/2000/svg">
<path d="M5.00428 2.7017C5.00428 2.61443 5.0164 2.42596 5.04064 2.13748C5.0667 1.8484 5.17578 1.54599 5.37153 1.22843C5.56546 0.912082 5.87999 0.627852 6.31755 0.376347C6.75329 0.126055 7.38296 0 8.20474 0H10.5198V2.52292H8.82472C8.65684 2.52292 8.50049 2.58595 8.35928 2.71019C8.21929 2.83442 8.14717 2.9526 8.14717 3.06229V4.63192H10.5192C10.4943 4.93918 10.4671 5.23796 10.4356 5.52643L10.3416 6.28882C10.304 6.54638 10.2659 6.78516 10.2283 7.00515H8.1302V14H5.00428V7.00455H3.47949V4.63192H5.00428V2.7017Z" fill="white"/>
</svg>
