<svg width="14" height="14" viewBox="0 0 14 14" fill="none" xmlns="http://www.w3.org/2000/svg">
<path d="M6.61396 0.561629C6.68645 0.414781 6.83599 0.321815 6.99977 0.321815C7.16354 0.321787 7.31312 0.414753 7.3856 0.5616L9.06379 3.96145C9.2216 4.28113 9.5266 4.50277 9.87943 4.55401L13.6316 5.09945C13.7936 5.12302 13.9283 5.23653 13.9789 5.39229C14.0295 5.54803 13.9873 5.71902 13.87 5.83335L11.1552 8.48004C10.8999 8.72894 10.7834 9.08748 10.8436 9.43884L11.4842 13.1753C11.5119 13.3367 11.4455 13.4998 11.313 13.596C11.1805 13.6923 11.0049 13.7049 10.86 13.6287L7.50388 11.8647C7.18831 11.6988 6.81131 11.6988 6.49569 11.8648L3.13992 13.6287C2.99495 13.7049 2.8193 13.6922 2.68682 13.5959C2.55432 13.4997 2.488 13.3365 2.51566 13.1752L3.15654 9.43901C3.21684 9.08754 3.10032 8.72894 2.84497 8.47998L0.129942 5.83337C0.0126907 5.71905 -0.0295457 5.54806 0.0210698 5.39232C0.0716854 5.23658 0.206319 5.12308 0.368391 5.09948L4.12042 4.55407C4.47325 4.50277 4.77828 4.28116 4.93609 3.96142L6.61396 0.561629Z" fill="#FFB800"/>
</svg>
