<?xml version="1.0" encoding="utf-8"?><svg xmlns="http://www.w3.org/2000/svg" xmlns:xlink="http://www.w3.org/1999/xlink"><symbol viewBox="0 0 6 8" id="arrow-nav" xmlns="http://www.w3.org/2000/svg"><path d="M5.223 3.688L1.663.128A.434.434 0 001.353 0a.434.434 0 00-.31.128L.783.39a.438.438 0 000 .619l2.989 2.99L.778 6.99a.435.435 0 000 .619l.262.262A.435.435 0 001.35 8a.434.434 0 00.31-.128L5.222 4.31A.435.435 0 005.349 4a.435.435 0 00-.127-.311z"/></symbol><symbol viewBox="0 0 28 22" id="compare" xmlns="http://www.w3.org/2000/svg"><path d="M27.707 7.293l-7-7A1 1 0 0019 1v3h-7a1 1 0 100 2h8a1 1 0 001-1V3.414L25.586 8 21 12.586V11a1 1 0 00-1-1H9V7a1 1 0 00-1.707-.707l-7 7a1 1 0 000 1.414l7 7A1 1 0 009 21v-3h7a1 1 0 100-2H8a1 1 0 00-1 1v1.586L2.414 14 7 9.414V11a1 1 0 001 1h11v3a1 1 0 001.707.707l7-7a1 1 0 000-1.414z"/></symbol><symbol viewBox="0 0 14 14" id="facebook" xmlns="http://www.w3.org/2000/svg"><path d="M5.004 2.702a8.4 8.4 0 01.037-.565c.026-.289.135-.591.33-.909.194-.316.509-.6.947-.852C6.753.126 7.383 0 8.205 0h2.315v2.523H8.825a.693.693 0 00-.466.187c-.14.124-.212.243-.212.352v1.57h2.372c-.025.307-.052.606-.083.894l-.094.763c-.038.257-.076.496-.114.716H8.13V14H5.004V7.005H3.48V4.632h1.525v-1.93z"/></symbol><symbol viewBox="0 0 14 14" id="instagram" xmlns="http://www.w3.org/2000/svg"><g clip-path="url(#da)"><path d="M9.625 0h-5.25A4.375 4.375 0 000 4.375v5.25A4.375 4.375 0 004.375 14h5.25A4.375 4.375 0 0014 9.625v-5.25A4.375 4.375 0 009.625 0zm3.063 9.625a3.066 3.066 0 01-3.063 3.063h-5.25a3.066 3.066 0 01-3.063-3.063v-5.25a3.066 3.066 0 013.063-3.063h5.25a3.066 3.066 0 013.063 3.063v5.25z"/><path d="M7 3.5a3.5 3.5 0 100 7 3.5 3.5 0 000-7zm0 5.688A2.19 2.19 0 014.812 7 2.19 2.19 0 017 4.812 2.19 2.19 0 019.188 7 2.19 2.19 0 017 9.188zm3.762-5.484a.466.466 0 100-.933.466.466 0 000 .933z"/></g><defs><clipPath id="da"><path d="M0 0h14v14H0z"/></clipPath></defs></symbol><symbol viewBox="0 0 20 20" id="search" xmlns="http://www.w3.org/2000/svg"><g clip-path="url(#ea)"><path d="M8.808 0C3.95 0 0 3.951 0 8.808c0 4.856 3.951 8.807 8.808 8.807 4.856 0 8.807-3.95 8.807-8.807S13.665 0 8.808 0zm0 15.99c-3.96 0-7.182-3.223-7.182-7.182 0-3.96 3.222-7.182 7.182-7.182 3.96 0 7.181 3.222 7.181 7.182 0 3.96-3.222 7.181-7.181 7.181z"/><path d="M19.762 18.612l-4.661-4.661a.812.812 0 10-1.15 1.15l4.661 4.66a.81.81 0 001.15 0 .813.813 0 000-1.149z"/></g><defs><clipPath id="ea"><path d="M0 0h20v20H0z"/></clipPath></defs></symbol><symbol viewBox="0 0 14 14" id="telegram" xmlns="http://www.w3.org/2000/svg"><path d="M5.493 8.856l-.231 3.257c.331 0 .475-.142.647-.313l1.553-1.485 3.219 2.357c.59.33 1.006.156 1.165-.543l2.113-9.9c.188-.873-.315-1.215-.89-1L.65 5.983c-.847.33-.834.802-.143 1.016l3.175.987 7.375-4.614c.347-.23.663-.103.403.127L5.493 8.856z"/></symbol><symbol viewBox="0 0 14 14" id="youtube" xmlns="http://www.w3.org/2000/svg"><path d="M13.285 3.72a1.644 1.644 0 00-1.157-1.157c-1.027-.282-5.135-.282-5.135-.282s-4.108 0-5.135.27A1.678 1.678 0 00.7 3.72C.43 4.747.43 6.877.43 6.877s0 2.14.27 3.157a1.645 1.645 0 001.157 1.157c1.038.281 5.135.281 5.135.281s4.108 0 5.135-.27a1.644 1.644 0 001.157-1.157c.27-1.027.27-3.157.27-3.157s.011-2.14-.27-3.168zm-7.6 5.124V4.909l3.416 1.967-3.416 1.968z"/></symbol></svg>